<svg width="15" height="13" viewBox="0 0 15 13" fill="none" xmlns="http://www.w3.org/2000/svg">
  <path
    d="M5.83664 0.180113L0.179199 6.13351L5.83664 12.0869C5.88774 12.1572 5.95265 12.2151 6.02699 12.2568C6.10133 12.2985 6.18336 12.323 6.26752 12.3286C6.35169 12.3342 6.43602 12.3208 6.51482 12.2894C6.59362 12.2579 6.66504 12.2091 6.72425 12.1462C6.78345 12.0833 6.82907 12.0079 6.85799 11.9249C6.88692 11.842 6.89849 11.7535 6.89192 11.6655C6.88535 11.5775 6.86079 11.492 6.8199 11.4148C6.77902 11.3375 6.72276 11.2704 6.65494 11.2179L2.42216 6.74981L13.6841 6.74981C13.8402 6.74981 13.9899 6.68488 14.1003 6.5693C14.2107 6.45372 14.2728 6.29697 14.2728 6.13351C14.2728 5.97006 14.2107 5.81331 14.1003 5.69773C13.9899 5.58215 13.8402 5.51722 13.6841 5.51722L2.42216 5.51722L6.65494 1.04909C6.76502 0.933037 6.82655 0.775963 6.82599 0.612421C6.82544 0.448879 6.76285 0.292264 6.652 0.177031C6.54114 0.0617979 6.3911 -0.00261475 6.23488 -0.00203686C6.07866 -0.00145898 5.92906 0.0640627 5.81898 0.180113H5.83664Z"
    fill="#111111"
  />
</svg>
