<svg width="16" height="15" viewBox="0 0 16 15" fill="none" xmlns="http://www.w3.org/2000/svg">
<path d="M9.57728 14.2932L16 7.53449L9.57728 0.775777C9.51927 0.696035 9.44558 0.63027 9.36118 0.582935C9.27679 0.535601 9.18366 0.507802 9.08811 0.50142C8.99256 0.495038 8.89682 0.510222 8.80736 0.545945C8.7179 0.581667 8.63682 0.637094 8.56961 0.708472C8.50239 0.779851 8.45061 0.865515 8.41777 0.959665C8.38493 1.05381 8.37179 1.15425 8.37925 1.25418C8.38671 1.35411 8.41459 1.45119 8.46101 1.53885C8.50743 1.62652 8.57129 1.70272 8.64829 1.7623L13.4536 6.83483L0.668337 6.83483C0.491083 6.83483 0.321089 6.90855 0.195751 7.03976C0.0704136 7.17097 0 7.34893 0 7.53449C0 7.72005 0.0704136 7.89802 0.195751 8.02923C0.321089 8.16044 0.491083 8.23415 0.668337 8.23415L13.4536 8.23415L8.64829 13.3067C8.52332 13.4384 8.45347 13.6168 8.4541 13.8024C8.45472 13.9881 8.52578 14.1659 8.65163 14.2967C8.77748 14.4275 8.94782 14.5007 9.12517 14.5C9.30252 14.4993 9.47236 14.425 9.59733 14.2932H9.57728Z" fill="#0000FF"/>
</svg>
