<svg width="231" height="474" viewBox="0 0 231 474" fill="none" xmlns="http://www.w3.org/2000/svg">
<path fill-rule="evenodd" clip-rule="evenodd" d="M130.434 53C133.949 63.0875 131.547 72.3469 123.225 83.5662C121.023 86.472 121.023 88.6859 123.225 91.5917C134.925 107.366 134.925 119.266 123.225 135.04C121.023 137.946 121.023 140.16 123.225 143.065C134.925 158.84 134.925 170.739 123.225 186.514C121.023 189.419 121.023 191.633 123.225 194.539C134.925 210.313 134.925 222.213 123.225 237.987C121.023 240.893 121.023 243.107 123.225 246.013C134.925 261.787 134.925 273.687 123.225 289.461C121.023 292.367 121.023 294.581 123.225 297.486C134.925 313.261 134.925 325.16 123.225 340.935C121.023 343.84 121.023 346.054 123.225 348.96C134.925 364.734 134.925 376.634 123.225 392.408C121.023 395.314 121.023 397.528 123.225 400.434C134.925 416.208 134.925 428.108 123.225 443.882C121.258 446.478 121.048 448.522 122.596 451H99.2309C99.0746 449.891 99 448.723 99 447.48C99 441.391 100.789 437.102 105.194 432.812C108.497 429.63 109.736 426.309 109.736 421.743C109.736 417.177 108.36 413.856 105.194 410.673C100.789 406.384 99 402.094 99 396.006C99 389.918 100.789 385.628 105.194 381.339C108.497 378.156 109.736 374.835 109.736 370.269C109.736 365.703 108.36 362.52 105.194 359.2C100.789 354.91 99 350.621 99 344.532C99 338.444 100.789 334.154 105.194 329.865C108.497 326.682 109.736 323.362 109.736 318.795C109.736 314.229 108.36 311.047 105.194 307.726C100.789 303.436 99 299.147 99 293.059C99 286.97 100.789 282.681 105.194 278.391C108.497 275.209 109.736 271.888 109.736 267.322C109.736 262.756 108.36 259.573 105.194 256.252C100.789 251.963 99 247.673 99 241.585C99 235.497 100.789 231.207 105.194 226.918C108.497 223.735 109.736 220.414 109.736 215.848C109.736 211.282 108.36 207.961 105.194 204.778C100.789 200.489 99 196.199 99 190.111C99 184.023 100.789 179.733 105.194 175.444C108.497 172.261 109.736 168.941 109.736 164.374C109.736 159.808 108.36 156.487 105.194 153.305C100.789 149.015 99 144.726 99 138.638C99 132.549 100.789 128.26 105.194 123.97C108.497 120.788 109.736 117.467 109.736 112.901C109.736 108.334 108.36 105.152 105.194 101.831C100.789 97.5416 99 93.2521 99 87.1638C99 81.0756 100.789 76.7861 105.194 72.4966C108.497 69.3141 109.736 65.9932 109.736 61.427C109.736 58.0723 108.993 55.4645 107.344 53H130.434Z" fill="#0000FF"/>
<rect x="0.5" y="0.5" width="230" height="61" rx="30.5" fill="#0000FF"/>
<path d="M49.0742 38V24.6699H54.3477C55.6758 24.6699 56.6589 24.9954 57.2969 25.6465C57.9414 26.2975 58.2637 27.0527 58.2637 27.9121C58.2637 29.4225 57.4759 30.4251 55.9004 30.9199C56.8379 31.1608 57.5345 31.5905 57.9902 32.209C58.446 32.8275 58.6738 33.5273 58.6738 34.3086C58.6738 35.3568 58.319 36.2357 57.6094 36.9453C56.9062 37.6484 55.819 38 54.3477 38H49.0742ZM50.6855 30.3828H53.5859C54.7904 30.3828 55.5944 30.1549 55.998 29.6992C56.4017 29.237 56.6035 28.6966 56.6035 28.0781C56.6035 27.4661 56.3854 26.9714 55.9492 26.5938C55.5195 26.2161 54.875 26.0273 54.0156 26.0273H50.6855V30.3828ZM50.6855 36.5352H54.2598C55.1322 36.5352 55.806 36.3236 56.2812 35.9004C56.7565 35.4772 56.9941 34.9271 56.9941 34.25C56.9941 33.7747 56.8867 33.3353 56.6719 32.9316C56.457 32.5215 56.1543 32.2057 55.7637 31.9844C55.373 31.763 54.7904 31.6523 54.0156 31.6523H50.6855V36.5352ZM68.752 38H67.2285C67.1699 37.6875 67.1113 37.0951 67.0527 36.2227C66.3757 37.5833 65.2233 38.2637 63.5957 38.2637C62.4889 38.2637 61.6393 37.9707 61.0469 37.3848C60.4544 36.7988 60.1582 36.0957 60.1582 35.2754C60.1582 34.2793 60.5814 33.4622 61.4277 32.8242C62.2741 32.1797 63.7129 31.8574 65.7441 31.8574C66.0176 31.8574 66.4538 31.8704 67.0527 31.8965C67.0527 31.1152 66.9909 30.5521 66.8672 30.207C66.75 29.8555 66.4961 29.5755 66.1055 29.3672C65.7148 29.1589 65.2005 29.0547 64.5625 29.0547C63.0065 29.0547 62.1016 29.6471 61.8477 30.832L60.4316 30.5879C60.7767 28.7715 62.2285 27.8633 64.7871 27.8633C66.1478 27.8633 67.1113 28.166 67.6777 28.7715C68.2507 29.3704 68.5371 30.4121 68.5371 31.8965V36.0859C68.5371 36.7826 68.6087 37.4206 68.752 38ZM67.0527 33.0684C66.4277 33.0293 65.9525 33.0098 65.627 33.0098C64.416 33.0098 63.4753 33.2083 62.8047 33.6055C62.1341 34.0026 61.7988 34.582 61.7988 35.3438C61.7988 35.8255 61.9779 36.2357 62.3359 36.5742C62.7005 36.9128 63.2246 37.082 63.9082 37.082C64.8327 37.082 65.5911 36.7467 66.1836 36.0762C66.7826 35.4056 67.082 34.6178 67.082 33.7129C67.082 33.5306 67.0723 33.3158 67.0527 33.0684ZM70.2852 35.4414L71.75 35.1387C72.0755 36.3822 73.1042 37.0039 74.8359 37.0039C75.474 37.0039 76.0143 36.8607 76.457 36.5742C76.8997 36.2878 77.1211 35.8841 77.1211 35.3633C77.1211 34.5885 76.5579 34.097 75.4316 33.8887L73.3516 33.498C72.5378 33.3418 71.89 33.0358 71.4082 32.5801C70.9264 32.1243 70.6855 31.5221 70.6855 30.7734C70.6855 29.9466 71.0143 29.2565 71.6719 28.7031C72.3294 28.1432 73.2148 27.8633 74.3281 27.8633C76.4701 27.8633 77.7917 28.6999 78.293 30.373L76.8867 30.6758C76.4831 29.6471 75.653 29.1328 74.3965 29.1328C73.7715 29.1328 73.2572 29.263 72.8535 29.5234C72.4564 29.7773 72.2578 30.1354 72.2578 30.5977C72.2578 31.3268 72.7689 31.7858 73.791 31.9746L75.7148 32.3164C77.7266 32.681 78.7324 33.6543 78.7324 35.2363C78.7324 36.1413 78.3581 36.8737 77.6094 37.4336C76.8607 37.987 75.8646 38.2637 74.6211 38.2637C72.2839 38.2637 70.8385 37.3229 70.2852 35.4414ZM89.0352 38H87.4434L84.5625 32.4922L82.4238 34.9531V38H80.8906V24.6699H82.4238V33.2051L87.0039 28.1367H88.6445L85.5586 31.6035L89.0352 38ZM96.9746 35.0605L98.4004 35.3535C98.14 36.1934 97.6322 36.89 96.877 37.4434C96.1217 37.9902 95.2331 38.2637 94.2109 38.2637C92.8633 38.2637 91.7728 37.7917 90.9395 36.8477C90.1061 35.8971 89.6895 34.6536 89.6895 33.1172C89.6895 31.5482 90.1224 30.2819 90.9883 29.3184C91.8542 28.3483 92.9414 27.8633 94.25 27.8633C95.5391 27.8633 96.5742 28.3092 97.3555 29.2012C98.1432 30.0931 98.5469 31.4277 98.5664 33.2051H91.3984C91.3984 34.696 91.7109 35.7018 92.3359 36.2227C92.9609 36.7435 93.6217 37.0039 94.3184 37.0039C95.5749 37.0039 96.4603 36.3561 96.9746 35.0605ZM96.8867 32.0625C96.8737 31.5091 96.7826 31.0176 96.6133 30.5879C96.444 30.1582 96.1576 29.7936 95.7539 29.4941C95.3503 29.1882 94.8652 29.0352 94.2988 29.0352C93.5371 29.0352 92.8893 29.3086 92.3555 29.8555C91.8281 30.4023 91.5319 31.138 91.4668 32.0625H96.8867ZM105.246 36.9453V38.1562C104.706 38.2279 104.237 38.2637 103.84 38.2637C101.932 38.2637 100.979 37.2676 100.979 35.2754V29.3379H99.2305V28.1367H100.979L101.047 25.6562L102.473 25.5195V28.1367H104.68V29.3379H102.473V35.5293C102.473 36.5449 103 37.0527 104.055 37.0527C104.406 37.0527 104.803 37.0169 105.246 36.9453ZM115.461 38.2637C114.107 38.2637 113.049 37.7624 112.287 36.7598C111.532 35.7572 111.154 34.5137 111.154 33.0293C111.154 31.4603 111.581 30.207 112.434 29.2695C113.286 28.332 114.348 27.8633 115.617 27.8633C116.978 27.8633 118.049 28.3581 118.83 29.3477C119.618 30.3307 120.012 31.5612 120.012 33.0391C120.012 34.5755 119.589 35.832 118.742 36.8086C117.896 37.7786 116.802 38.2637 115.461 38.2637ZM115.578 37.0039C116.359 37.0039 117.014 36.6816 117.541 36.0371C118.068 35.3926 118.332 34.39 118.332 33.0293C118.332 31.6621 118.055 30.6725 117.502 30.0605C116.949 29.4421 116.301 29.1328 115.559 29.1328C114.797 29.1328 114.152 29.4453 113.625 30.0703C113.098 30.6888 112.834 31.6719 112.834 33.0195C112.834 34.4453 113.098 35.4674 113.625 36.0859C114.152 36.6979 114.803 37.0039 115.578 37.0039ZM129.191 28.1367L125.783 38H124.191L120.666 28.1367H122.365L125.109 36.1543L127.824 28.1367H129.191ZM137.17 35.0605L138.596 35.3535C138.335 36.1934 137.827 36.89 137.072 37.4434C136.317 37.9902 135.428 38.2637 134.406 38.2637C133.059 38.2637 131.968 37.7917 131.135 36.8477C130.301 35.8971 129.885 34.6536 129.885 33.1172C129.885 31.5482 130.318 30.2819 131.184 29.3184C132.049 28.3483 133.137 27.8633 134.445 27.8633C135.734 27.8633 136.77 28.3092 137.551 29.2012C138.339 30.0931 138.742 31.4277 138.762 33.2051H131.594C131.594 34.696 131.906 35.7018 132.531 36.2227C133.156 36.7435 133.817 37.0039 134.514 37.0039C135.77 37.0039 136.656 36.3561 137.17 35.0605ZM137.082 32.0625C137.069 31.5091 136.978 31.0176 136.809 30.5879C136.639 30.1582 136.353 29.7936 135.949 29.4941C135.546 29.1882 135.061 29.0352 134.494 29.0352C133.732 29.0352 133.085 29.3086 132.551 29.8555C132.023 30.4023 131.727 31.138 131.662 32.0625H137.082ZM142.6 38H141.066V28.1367H142.414V30.4414C142.889 29.3542 143.365 28.651 143.84 28.332C144.322 28.0065 144.813 27.8438 145.314 27.8438C145.471 27.8438 145.673 27.8568 145.92 27.8828V29.3477H145.607C144.761 29.3477 144.058 29.6634 143.498 30.2949C142.938 30.9264 142.639 31.7565 142.6 32.7852V38ZM155.422 28.1367L152.014 38H150.422L146.896 28.1367H148.596L151.34 36.1543L154.055 28.1367H155.422ZM158.781 24.6699V26.3691H157.131V24.6699H158.781ZM158.732 28.1367V38H157.199V28.1367H158.732ZM168.303 35.0605L169.729 35.3535C169.468 36.1934 168.96 36.89 168.205 37.4434C167.45 37.9902 166.561 38.2637 165.539 38.2637C164.191 38.2637 163.101 37.7917 162.268 36.8477C161.434 35.8971 161.018 34.6536 161.018 33.1172C161.018 31.5482 161.451 30.2819 162.316 29.3184C163.182 28.3483 164.27 27.8633 165.578 27.8633C166.867 27.8633 167.902 28.3092 168.684 29.2012C169.471 30.0931 169.875 31.4277 169.895 33.2051H162.727C162.727 34.696 163.039 35.7018 163.664 36.2227C164.289 36.7435 164.95 37.0039 165.646 37.0039C166.903 37.0039 167.788 36.3561 168.303 35.0605ZM168.215 32.0625C168.202 31.5091 168.111 31.0176 167.941 30.5879C167.772 30.1582 167.486 29.7936 167.082 29.4941C166.678 29.1882 166.193 29.0352 165.627 29.0352C164.865 29.0352 164.217 29.3086 163.684 29.8555C163.156 30.4023 162.86 31.138 162.795 32.0625H168.215ZM183.215 28.1367L180.373 38H179.133L176.926 30.6758L174.904 38H173.645L170.686 28.1367H172.229L174.367 35.4902L176.418 28.1367H177.541L179.758 35.5195L181.975 28.1367H183.215Z" fill="white"/>
<rect x="0.5" y="0.5" width="230" height="61" rx="30.5" stroke="#0000FF"/>
<rect x="1" y="206.167" width="229" height="61" rx="30.5" fill="white"/>
<path d="M33.8594 243.667H32.1895V230.337H36.916C38.3939 230.337 39.4844 230.74 40.1875 231.547C40.8906 232.348 41.2422 233.263 41.2422 234.292C41.2422 235.437 40.8581 236.385 40.0898 237.133C39.3281 237.882 38.3288 238.256 37.0918 238.256H33.8594V243.667ZM33.8594 236.87H36.9258C37.7135 236.87 38.3483 236.635 38.8301 236.167C39.3118 235.691 39.5527 235.066 39.5527 234.292C39.5527 233.628 39.3379 233.035 38.9082 232.514C38.4785 231.993 37.8568 231.733 37.043 231.733H33.8594V236.87ZM50.8711 243.667H49.3477C49.2891 243.354 49.2305 242.762 49.1719 241.889C48.4948 243.25 47.3424 243.93 45.7148 243.93C44.6081 243.93 43.7585 243.637 43.166 243.051C42.5736 242.465 42.2773 241.762 42.2773 240.942C42.2773 239.946 42.7005 239.129 43.5469 238.491C44.3932 237.846 45.832 237.524 47.8633 237.524C48.1367 237.524 48.5729 237.537 49.1719 237.563C49.1719 236.782 49.11 236.219 48.9863 235.874C48.8691 235.522 48.6152 235.242 48.2246 235.034C47.834 234.825 47.3197 234.721 46.6816 234.721C45.1257 234.721 44.2207 235.314 43.9668 236.499L42.5508 236.255C42.8958 234.438 44.3477 233.53 46.9062 233.53C48.2669 233.53 49.2305 233.833 49.7969 234.438C50.3698 235.037 50.6562 236.079 50.6562 237.563V241.753C50.6562 242.449 50.7279 243.087 50.8711 243.667ZM49.1719 238.735C48.5469 238.696 48.0716 238.676 47.7461 238.676C46.5352 238.676 45.5944 238.875 44.9238 239.272C44.2533 239.669 43.918 240.249 43.918 241.01C43.918 241.492 44.097 241.902 44.4551 242.241C44.8197 242.579 45.3438 242.749 46.0273 242.749C46.9518 242.749 47.7103 242.413 48.3027 241.743C48.9017 241.072 49.2012 240.284 49.2012 239.38C49.2012 239.197 49.1914 238.982 49.1719 238.735ZM60.0508 233.803L56.0957 244.819C55.5228 246.408 54.6081 247.202 53.3516 247.202C52.9544 247.202 52.515 247.133 52.0332 246.997V245.796C52.4303 245.887 52.7721 245.932 53.0586 245.932C53.5469 245.932 53.9538 245.792 54.2793 245.512C54.6113 245.232 54.9401 244.555 55.2656 243.481L51.8574 233.803H53.4199L56.0566 241.215L58.7617 233.803H60.0508ZM74.7969 243.667H73.3027V237.534C73.3027 236.902 73.2572 236.43 73.166 236.118C73.0814 235.799 72.8698 235.509 72.5312 235.249C72.1927 234.982 71.8118 234.848 71.3887 234.848C70.8027 234.848 70.2363 235.118 69.6895 235.659C69.1491 236.193 68.8789 237.01 68.8789 238.11V243.667H67.3945V237.172C67.3945 236.307 67.1862 235.695 66.7695 235.337C66.3594 234.978 65.9264 234.799 65.4707 234.799C64.8197 234.799 64.2533 235.079 63.7715 235.639C63.2897 236.199 63.0488 236.909 63.0488 237.768V243.667H61.584V233.803H62.9023V235.698C63.638 234.253 64.6504 233.53 65.9395 233.53C66.6491 233.53 67.2513 233.761 67.7461 234.223C68.2409 234.686 68.5599 235.242 68.7031 235.893C69.3802 234.318 70.4186 233.53 71.8184 233.53C72.4889 233.53 73.0749 233.722 73.5762 234.106C74.084 234.49 74.4128 234.933 74.5625 235.434C74.7188 235.929 74.7969 236.629 74.7969 237.534V243.667ZM84.3867 240.727L85.8125 241.02C85.5521 241.86 85.0443 242.557 84.2891 243.11C83.5339 243.657 82.6452 243.93 81.623 243.93C80.2754 243.93 79.1849 243.458 78.3516 242.514C77.5182 241.564 77.1016 240.32 77.1016 238.784C77.1016 237.215 77.5345 235.949 78.4004 234.985C79.2663 234.015 80.3535 233.53 81.6621 233.53C82.9512 233.53 83.9863 233.976 84.7676 234.868C85.5553 235.76 85.959 237.094 85.9785 238.872H78.8105C78.8105 240.363 79.123 241.368 79.748 241.889C80.373 242.41 81.0339 242.671 81.7305 242.671C82.987 242.671 83.8724 242.023 84.3867 240.727ZM84.2988 237.729C84.2858 237.176 84.1947 236.684 84.0254 236.255C83.8561 235.825 83.5697 235.46 83.166 235.161C82.7624 234.855 82.2773 234.702 81.7109 234.702C80.9492 234.702 80.3014 234.975 79.7676 235.522C79.2402 236.069 78.944 236.805 78.8789 237.729H84.2988ZM96.0566 243.667H94.6211V237.329C94.6211 236.417 94.4225 235.776 94.0254 235.405C93.6283 235.034 93.1465 234.848 92.5801 234.848C91.7988 234.848 91.1413 235.161 90.6074 235.786C90.0801 236.411 89.8164 237.234 89.8164 238.256V243.667H88.2832V233.803H89.709V235.62C90.5098 234.227 91.5482 233.53 92.8242 233.53C93.5599 233.53 94.1849 233.722 94.6992 234.106C95.2201 234.484 95.5749 234.91 95.7637 235.385C95.959 235.861 96.0566 236.72 96.0566 237.964V243.667ZM103.596 242.612V243.823C103.055 243.894 102.587 243.93 102.189 243.93C100.282 243.93 99.3281 242.934 99.3281 240.942V235.005H97.5801V233.803H99.3281L99.3965 231.323L100.822 231.186V233.803H103.029V235.005H100.822V241.196C100.822 242.212 101.35 242.719 102.404 242.719C102.756 242.719 103.153 242.684 103.596 242.612ZM121.35 242.26V243.667C120.757 243.764 120.275 243.813 119.904 243.813C119.631 243.813 119.338 243.764 119.025 243.667C118.719 243.569 118.27 243.214 117.678 242.602C116.623 243.488 115.432 243.93 114.104 243.93C112.756 243.93 111.669 243.546 110.842 242.778C110.021 242.003 109.611 241.069 109.611 239.975C109.611 239.103 109.901 238.299 110.48 237.563C111.066 236.821 111.929 236.264 113.068 235.893C112.209 234.663 111.779 233.65 111.779 232.856C111.779 232.101 112.049 231.447 112.59 230.893C113.13 230.34 113.85 230.063 114.748 230.063C115.66 230.063 116.405 230.32 116.984 230.835C117.57 231.349 117.863 232.042 117.863 232.915C117.863 234.334 116.929 235.486 115.061 236.372L117.873 240.63C118.785 239.477 119.387 238.058 119.68 236.372L121.105 236.674C120.708 238.595 119.891 240.258 118.654 241.665C119.077 242.127 119.553 242.358 120.08 242.358C120.321 242.358 120.744 242.325 121.35 242.26ZM114.387 235.415C115.435 234.835 116.066 234.37 116.281 234.018C116.496 233.667 116.604 233.328 116.604 233.003C116.604 232.54 116.438 232.143 116.105 231.811C115.773 231.473 115.35 231.303 114.836 231.303C114.367 231.303 113.98 231.453 113.674 231.753C113.368 232.046 113.215 232.378 113.215 232.749C113.215 233.322 113.605 234.21 114.387 235.415ZM113.713 236.899C112.788 237.296 112.15 237.726 111.799 238.188C111.454 238.644 111.281 239.217 111.281 239.907C111.281 240.851 111.581 241.547 112.18 241.997C112.785 242.446 113.488 242.671 114.289 242.671C115.305 242.671 116.18 242.316 116.916 241.606L113.713 236.899ZM127.287 240.122L128.791 239.78C129.396 241.596 130.708 242.505 132.727 242.505C133.781 242.505 134.576 242.283 135.109 241.84C135.643 241.391 135.91 240.792 135.91 240.044C135.91 239.477 135.705 239.021 135.295 238.676C134.891 238.331 134.423 238.094 133.889 237.964L131.223 237.299C130.533 237.124 129.966 236.912 129.523 236.665C129.087 236.411 128.716 236.023 128.41 235.503C128.104 234.982 127.951 234.386 127.951 233.715C127.951 232.602 128.371 231.717 129.211 231.059C130.051 230.395 131.128 230.063 132.443 230.063C134.865 230.063 136.457 231.16 137.219 233.354L135.705 233.803C135.529 233.022 135.116 232.433 134.465 232.036C133.814 231.632 133.12 231.43 132.385 231.43C131.656 231.43 131.005 231.622 130.432 232.006C129.865 232.391 129.582 232.934 129.582 233.637C129.582 234.62 130.305 235.284 131.75 235.63L134.24 236.225C136.519 236.772 137.658 237.999 137.658 239.907C137.658 241.059 137.229 242.019 136.369 242.788C135.516 243.549 134.312 243.93 132.756 243.93C129.995 243.93 128.173 242.661 127.287 240.122ZM147.736 243.667H146.203V237.68C146.203 236.977 146.158 236.45 146.066 236.098C145.982 235.747 145.773 235.444 145.441 235.19C145.116 234.93 144.738 234.799 144.309 234.799C143.521 234.799 142.86 235.122 142.326 235.766C141.799 236.411 141.535 237.273 141.535 238.354V243.667H140.002V230.337H141.535V235.62C142.232 234.227 143.228 233.53 144.523 233.53C145.103 233.53 145.617 233.644 146.066 233.872C146.522 234.1 146.87 234.399 147.111 234.77C147.352 235.141 147.515 235.509 147.6 235.874C147.691 236.232 147.736 236.834 147.736 237.68V243.667ZM152.385 230.337V232.036H150.734V230.337H152.385ZM152.336 233.803V243.667H150.803V233.803H152.336ZM156.926 246.997H155.393V233.803H156.77V235.717C157.466 234.259 158.505 233.53 159.885 233.53C161.05 233.53 161.991 234.018 162.707 234.995C163.423 235.965 163.781 237.195 163.781 238.686C163.781 240.294 163.413 241.57 162.678 242.514C161.942 243.458 160.998 243.93 159.846 243.93C158.609 243.93 157.635 243.341 156.926 242.163V246.997ZM156.926 237.309V240.083C157.023 240.831 157.339 241.45 157.873 241.938C158.407 242.426 158.964 242.671 159.543 242.671C160.214 242.671 160.806 242.378 161.32 241.792C161.841 241.206 162.102 240.193 162.102 238.755C162.102 237.511 161.867 236.554 161.398 235.883C160.93 235.206 160.308 234.868 159.533 234.868C158.921 234.868 158.371 235.105 157.883 235.581C157.401 236.056 157.082 236.632 156.926 237.309ZM167.609 246.997H166.076V233.803H167.453V235.717C168.15 234.259 169.188 233.53 170.568 233.53C171.734 233.53 172.674 234.018 173.391 234.995C174.107 235.965 174.465 237.195 174.465 238.686C174.465 240.294 174.097 241.57 173.361 242.514C172.626 243.458 171.682 243.93 170.529 243.93C169.292 243.93 168.319 243.341 167.609 242.163V246.997ZM167.609 237.309V240.083C167.707 240.831 168.023 241.45 168.557 241.938C169.09 242.426 169.647 242.671 170.227 242.671C170.897 242.671 171.49 242.378 172.004 241.792C172.525 241.206 172.785 240.193 172.785 238.755C172.785 237.511 172.551 236.554 172.082 235.883C171.613 235.206 170.992 234.868 170.217 234.868C169.605 234.868 169.055 235.105 168.566 235.581C168.085 236.056 167.766 236.632 167.609 237.309ZM178.342 230.337V232.036H176.691V230.337H178.342ZM178.293 233.803V243.667H176.76V233.803H178.293ZM189.123 243.667H187.688V237.329C187.688 236.417 187.489 235.776 187.092 235.405C186.695 235.034 186.213 234.848 185.646 234.848C184.865 234.848 184.208 235.161 183.674 235.786C183.146 236.411 182.883 237.234 182.883 238.256V243.667H181.35V233.803H182.775V235.62C183.576 234.227 184.615 233.53 185.891 233.53C186.626 233.53 187.251 233.722 187.766 234.106C188.286 234.484 188.641 234.91 188.83 235.385C189.025 235.861 189.123 236.72 189.123 237.964V243.667ZM200.246 232.26V233.481C199.543 233.481 199.071 233.562 198.83 233.725C198.596 233.888 198.439 234.181 198.361 234.604C198.993 235.333 199.309 236.128 199.309 236.987C199.309 237.885 198.964 238.657 198.273 239.301C197.59 239.946 196.669 240.268 195.51 240.268C195.249 240.268 195.025 240.249 194.836 240.21C194.478 240.138 194.253 240.102 194.162 240.102C193.986 240.102 193.775 240.19 193.527 240.366C193.28 240.535 193.156 240.756 193.156 241.03C193.156 241.421 193.335 241.674 193.693 241.792C194.051 241.909 194.895 241.984 196.223 242.016C197.349 242.049 198.179 242.127 198.713 242.251C199.253 242.368 199.709 242.635 200.08 243.051C200.451 243.462 200.637 243.966 200.637 244.565C200.637 246.447 198.983 247.387 195.676 247.387C194.107 247.387 192.961 247.15 192.238 246.674C191.522 246.206 191.164 245.577 191.164 244.79C191.164 243.833 191.665 243.175 192.668 242.817C192.023 242.394 191.701 241.863 191.701 241.225C191.701 240.464 192.157 239.881 193.068 239.477C192.215 238.787 191.789 237.918 191.789 236.87C191.789 235.893 192.154 235.092 192.883 234.467C193.612 233.842 194.501 233.53 195.549 233.53C196.291 233.53 196.965 233.67 197.57 233.95C197.668 233.305 197.893 232.859 198.244 232.612C198.602 232.365 199.143 232.241 199.865 232.241C199.937 232.241 200.064 232.247 200.246 232.26ZM195.559 239.096C196.21 239.096 196.74 238.898 197.15 238.501C197.561 238.097 197.766 237.576 197.766 236.938C197.766 236.287 197.551 235.756 197.121 235.346C196.698 234.93 196.184 234.721 195.578 234.721C194.999 234.721 194.484 234.917 194.035 235.307C193.586 235.691 193.361 236.241 193.361 236.958C193.361 237.596 193.563 238.113 193.967 238.51C194.37 238.901 194.901 239.096 195.559 239.096ZM193.723 243.266C193.007 243.579 192.648 244.031 192.648 244.624C192.648 245.125 192.941 245.512 193.527 245.786C194.12 246.066 194.872 246.206 195.783 246.206C196.63 246.206 197.404 246.085 198.107 245.844C198.811 245.61 199.162 245.21 199.162 244.643C199.162 244.337 199.058 244.087 198.85 243.891C198.641 243.696 198.355 243.572 197.99 243.52C197.632 243.468 197.004 243.429 196.105 243.403C195.031 243.377 194.237 243.331 193.723 243.266Z" fill="#141414"/>
<rect x="1" y="206.167" width="229" height="61" rx="30.5" stroke="#0000FF"/>
<rect x="1" y="411.833" width="229" height="61" rx="30.5" fill="white"/>
<path d="M42.5801 449.597C40.8678 449.597 39.5332 448.933 38.5762 447.605C37.6191 446.27 37.1406 444.636 37.1406 442.703C37.1406 440.684 37.6419 439.018 38.6445 437.703C39.6471 436.387 40.9753 435.73 42.6289 435.73C44.276 435.73 45.5977 436.378 46.5938 437.673C47.5898 438.962 48.0879 440.59 48.0879 442.556C48.0879 444.444 47.6029 446.091 46.6328 447.497C45.6693 448.897 44.3184 449.597 42.5801 449.597ZM42.6191 448.24C43.7845 448.24 44.696 447.709 45.3535 446.648C46.0111 445.587 46.3398 444.219 46.3398 442.546C46.3398 440.828 45.998 439.49 45.3145 438.533C44.6374 437.576 43.7357 437.097 42.6094 437.097C41.4701 437.097 40.5651 437.615 39.8945 438.65C39.224 439.685 38.8887 441.039 38.8887 442.712C38.8887 444.346 39.2272 445.678 39.9043 446.706C40.5814 447.729 41.4863 448.24 42.6191 448.24ZM51.9941 449.333H50.4609V439.47H51.8086V441.775C52.2839 440.688 52.7591 439.984 53.2344 439.665C53.7161 439.34 54.2077 439.177 54.709 439.177C54.8652 439.177 55.0671 439.19 55.3145 439.216V440.681H55.002C54.1556 440.681 53.4525 440.997 52.8926 441.628C52.3327 442.26 52.0332 443.09 51.9941 444.119V449.333ZM64.4355 436.003V449.333H63.0391V447.644C62.349 448.946 61.3105 449.597 59.9238 449.597C58.7715 449.597 57.8242 449.115 57.082 448.152C56.3398 447.182 55.9688 445.958 55.9688 444.48C55.9688 442.969 56.3366 441.713 57.0723 440.71C57.8079 439.701 58.7845 439.197 60.002 439.197C61.1868 439.197 62.1536 439.737 62.9023 440.818V436.003H64.4355ZM62.9023 443.279C62.9023 442.413 62.6387 441.719 62.1113 441.199C61.584 440.678 60.9688 440.417 60.2656 440.417C59.5039 440.417 58.8757 440.756 58.3809 441.433C57.8926 442.11 57.6484 443.061 57.6484 444.285C57.6484 445.606 57.873 446.612 58.3223 447.302C58.778 447.992 59.3997 448.337 60.1875 448.337C60.9036 448.337 61.5352 448.038 62.082 447.439C62.6289 446.84 62.9023 446.137 62.9023 445.329V443.279ZM74.0254 446.394L75.4512 446.687C75.1908 447.527 74.6829 448.223 73.9277 448.777C73.1725 449.324 72.2839 449.597 71.2617 449.597C69.9141 449.597 68.8236 449.125 67.9902 448.181C67.1569 447.231 66.7402 445.987 66.7402 444.451C66.7402 442.882 67.1732 441.615 68.0391 440.652C68.9049 439.682 69.9922 439.197 71.3008 439.197C72.5898 439.197 73.625 439.643 74.4062 440.535C75.194 441.426 75.5977 442.761 75.6172 444.538H68.4492C68.4492 446.029 68.7617 447.035 69.3867 447.556C70.0117 448.077 70.6725 448.337 71.3691 448.337C72.6257 448.337 73.5111 447.689 74.0254 446.394ZM73.9375 443.396C73.9245 442.842 73.8333 442.351 73.6641 441.921C73.4948 441.492 73.2083 441.127 72.8047 440.828C72.401 440.522 71.916 440.369 71.3496 440.369C70.5879 440.369 69.9401 440.642 69.4062 441.189C68.8789 441.736 68.5827 442.471 68.5176 443.396H73.9375ZM79.4551 449.333H77.9219V439.47H79.2695V441.775C79.7448 440.688 80.2201 439.984 80.6953 439.665C81.1771 439.34 81.6686 439.177 82.1699 439.177C82.3262 439.177 82.528 439.19 82.7754 439.216V440.681H82.4629C81.6165 440.681 80.9134 440.997 80.3535 441.628C79.7936 442.26 79.4941 443.09 79.4551 444.119V449.333ZM95.3535 445.876L96.7402 446.12C96.5449 447.208 96.112 448.061 95.4414 448.679C94.7708 449.291 93.9342 449.597 92.9316 449.597C91.571 449.597 90.5326 449.096 89.8164 448.093C89.1068 447.091 88.752 445.867 88.752 444.421C88.752 442.924 89.1263 441.68 89.875 440.691C90.6302 439.695 91.6556 439.197 92.9512 439.197C94.0254 439.197 94.8848 439.519 95.5293 440.163C96.1803 440.801 96.584 441.628 96.7402 442.644L95.3535 442.908C95.0931 441.28 94.3053 440.466 92.9902 440.466C92.1439 440.466 91.4928 440.828 91.0371 441.55C90.5814 442.266 90.3535 443.197 90.3535 444.343C90.3535 445.606 90.5781 446.589 91.0273 447.292C91.4831 447.989 92.1211 448.337 92.9414 448.337C94.2109 448.337 95.015 447.517 95.3535 445.876ZM102.375 449.597C101.021 449.597 99.9629 449.096 99.2012 448.093C98.446 447.091 98.0684 445.847 98.0684 444.363C98.0684 442.794 98.4948 441.54 99.3477 440.603C100.201 439.665 101.262 439.197 102.531 439.197C103.892 439.197 104.963 439.691 105.744 440.681C106.532 441.664 106.926 442.895 106.926 444.372C106.926 445.909 106.503 447.165 105.656 448.142C104.81 449.112 103.716 449.597 102.375 449.597ZM102.492 448.337C103.273 448.337 103.928 448.015 104.455 447.37C104.982 446.726 105.246 445.723 105.246 444.363C105.246 442.995 104.969 442.006 104.416 441.394C103.863 440.775 103.215 440.466 102.473 440.466C101.711 440.466 101.066 440.779 100.539 441.404C100.012 442.022 99.748 443.005 99.748 444.353C99.748 445.779 100.012 446.801 100.539 447.419C101.066 448.031 101.717 448.337 102.492 448.337ZM117.004 449.333H115.568V442.995C115.568 442.084 115.37 441.443 114.973 441.072C114.576 440.701 114.094 440.515 113.527 440.515C112.746 440.515 112.089 440.828 111.555 441.453C111.027 442.078 110.764 442.901 110.764 443.923V449.333H109.23V439.47H110.656V441.286C111.457 439.893 112.495 439.197 113.771 439.197C114.507 439.197 115.132 439.389 115.646 439.773C116.167 440.15 116.522 440.577 116.711 441.052C116.906 441.527 117.004 442.387 117.004 443.63V449.333ZM124.162 439.47V440.671H121.818V449.333H120.285V440.671H118.605V439.47H120.285C120.311 437.888 120.614 436.869 121.193 436.413C121.779 435.958 122.492 435.73 123.332 435.73C123.742 435.73 124.211 435.775 124.738 435.867V437.087C124.406 437.003 124.09 436.96 123.791 436.96C123.12 436.96 122.622 437.11 122.297 437.41C121.978 437.703 121.818 438.256 121.818 439.07V439.47H124.162ZM127.766 436.003V437.703H126.115V436.003H127.766ZM127.717 439.47V449.333H126.184V439.47H127.717ZM132.307 449.333H130.773V439.47H132.121V441.775C132.596 440.688 133.072 439.984 133.547 439.665C134.029 439.34 134.52 439.177 135.021 439.177C135.178 439.177 135.38 439.19 135.627 439.216V440.681H135.314C134.468 440.681 133.765 440.997 133.205 441.628C132.645 442.26 132.346 443.09 132.307 444.119V449.333ZM150.588 449.333H149.094V443.201C149.094 442.569 149.048 442.097 148.957 441.785C148.872 441.466 148.661 441.176 148.322 440.915C147.984 440.648 147.603 440.515 147.18 440.515C146.594 440.515 146.027 440.785 145.48 441.326C144.94 441.859 144.67 442.676 144.67 443.777V449.333H143.186V442.839C143.186 441.973 142.977 441.361 142.561 441.003C142.15 440.645 141.717 440.466 141.262 440.466C140.611 440.466 140.044 440.746 139.562 441.306C139.081 441.866 138.84 442.576 138.84 443.435V449.333H137.375V439.47H138.693V441.365C139.429 439.919 140.441 439.197 141.73 439.197C142.44 439.197 143.042 439.428 143.537 439.89C144.032 440.352 144.351 440.909 144.494 441.56C145.171 439.984 146.21 439.197 147.609 439.197C148.28 439.197 148.866 439.389 149.367 439.773C149.875 440.157 150.204 440.6 150.354 441.101C150.51 441.596 150.588 442.296 150.588 443.201V449.333ZM161.389 449.333H159.865C159.807 449.021 159.748 448.428 159.689 447.556C159.012 448.917 157.86 449.597 156.232 449.597C155.126 449.597 154.276 449.304 153.684 448.718C153.091 448.132 152.795 447.429 152.795 446.609C152.795 445.613 153.218 444.796 154.064 444.158C154.911 443.513 156.35 443.191 158.381 443.191C158.654 443.191 159.09 443.204 159.689 443.23C159.689 442.449 159.628 441.885 159.504 441.54C159.387 441.189 159.133 440.909 158.742 440.701C158.352 440.492 157.837 440.388 157.199 440.388C155.643 440.388 154.738 440.981 154.484 442.165L153.068 441.921C153.413 440.105 154.865 439.197 157.424 439.197C158.785 439.197 159.748 439.499 160.314 440.105C160.887 440.704 161.174 441.745 161.174 443.23V447.419C161.174 448.116 161.245 448.754 161.389 449.333ZM159.689 444.402C159.064 444.363 158.589 444.343 158.264 444.343C157.053 444.343 156.112 444.542 155.441 444.939C154.771 445.336 154.436 445.915 154.436 446.677C154.436 447.159 154.615 447.569 154.973 447.908C155.337 448.246 155.861 448.415 156.545 448.415C157.469 448.415 158.228 448.08 158.82 447.41C159.419 446.739 159.719 445.951 159.719 445.046C159.719 444.864 159.709 444.649 159.689 444.402ZM168.723 448.279V449.49C168.182 449.561 167.714 449.597 167.316 449.597C165.409 449.597 164.455 448.601 164.455 446.609V440.671H162.707V439.47H164.455L164.523 436.99L165.949 436.853V439.47H168.156V440.671H165.949V446.863C165.949 447.878 166.477 448.386 167.531 448.386C167.883 448.386 168.28 448.35 168.723 448.279ZM171.984 436.003V437.703H170.334V436.003H171.984ZM171.936 439.47V449.333H170.402V439.47H171.936ZM178.527 449.597C177.173 449.597 176.115 449.096 175.354 448.093C174.598 447.091 174.221 445.847 174.221 444.363C174.221 442.794 174.647 441.54 175.5 440.603C176.353 439.665 177.414 439.197 178.684 439.197C180.044 439.197 181.115 439.691 181.896 440.681C182.684 441.664 183.078 442.895 183.078 444.372C183.078 445.909 182.655 447.165 181.809 448.142C180.962 449.112 179.868 449.597 178.527 449.597ZM178.645 448.337C179.426 448.337 180.08 448.015 180.607 447.37C181.135 446.726 181.398 445.723 181.398 444.363C181.398 442.995 181.122 442.006 180.568 441.394C180.015 440.775 179.367 440.466 178.625 440.466C177.863 440.466 177.219 440.779 176.691 441.404C176.164 442.022 175.9 443.005 175.9 444.353C175.9 445.779 176.164 446.801 176.691 447.419C177.219 448.031 177.87 448.337 178.645 448.337ZM193.156 449.333H191.721V442.995C191.721 442.084 191.522 441.443 191.125 441.072C190.728 440.701 190.246 440.515 189.68 440.515C188.898 440.515 188.241 440.828 187.707 441.453C187.18 442.078 186.916 442.901 186.916 443.923V449.333H185.383V439.47H186.809V441.286C187.609 439.893 188.648 439.197 189.924 439.197C190.66 439.197 191.285 439.389 191.799 439.773C192.32 440.15 192.674 440.577 192.863 441.052C193.059 441.527 193.156 442.387 193.156 443.63V449.333Z" fill="#141414"/>
<rect x="1" y="411.833" width="229" height="61" rx="30.5" stroke="#0000FF"/>
</svg>
