<svg width="27" height="27" viewBox="0 0 27 27" fill="none" xmlns="http://www.w3.org/2000/svg">
<path d="M26.629 5.54087C26.5586 5.45637 26.4705 5.38839 26.3709 5.34173C26.2713 5.29507 26.1627 5.27088 26.0527 5.27087H5.67773L5.03148 1.70837C4.95826 1.30493 4.7457 0.940008 4.43089 0.677286C4.11608 0.414565 3.71902 0.270727 3.30898 0.270874H1.05273C0.853822 0.270874 0.663057 0.349892 0.522404 0.490544C0.381752 0.631196 0.302734 0.821962 0.302734 1.02087C0.302734 1.21979 0.381752 1.41055 0.522404 1.5512C0.663057 1.69186 0.853822 1.77087 1.05273 1.77087H3.30273C3.36193 1.76991 3.41955 1.78998 3.46533 1.82752C3.51111 1.86506 3.54209 1.91763 3.55273 1.97587L6.74148 19.5134C6.84263 20.0728 7.11521 20.587 7.52148 20.9846C7.0309 21.377 6.66455 21.9032 6.46677 22.4994C6.26899 23.0957 6.24826 23.7365 6.40709 24.3443C6.56591 24.9521 6.89749 25.5009 7.36169 25.9241C7.82589 26.3474 8.40282 26.6271 9.02266 26.7293C9.6425 26.8315 10.2787 26.7519 10.8542 26.5001C11.4297 26.2483 11.92 25.8351 12.2656 25.3105C12.6111 24.7859 12.7973 24.1723 12.8014 23.5442C12.8056 22.916 12.6276 22.3 12.289 21.7709H18.8165C18.4278 22.3791 18.2527 23.0994 18.3187 23.8182C18.3848 24.537 18.6882 25.2133 19.1811 25.7405C19.6741 26.2678 20.3286 26.6159 21.0413 26.73C21.754 26.8441 22.4844 26.7177 23.1174 26.3707C23.7503 26.0238 24.2497 25.476 24.5369 24.8137C24.824 24.1515 24.8825 23.4125 24.7032 22.7134C24.5238 22.0142 24.1169 21.3946 23.5464 20.9524C22.976 20.5101 22.2745 20.2703 21.5527 20.2709H9.44898C9.15624 20.2709 8.87277 20.1682 8.64799 19.9807C8.42321 19.7931 8.27139 19.5326 8.21898 19.2446L7.76898 16.7709H22.5652C23.2093 16.771 23.8329 16.5452 24.3275 16.1326C24.8221 15.72 25.1561 15.147 25.2715 14.5134L26.7902 6.15462C26.8098 6.04675 26.8056 5.93589 26.7777 5.82985C26.7499 5.72381 26.6991 5.62517 26.629 5.54087ZM11.3027 23.5209C11.3027 23.867 11.2001 24.2053 11.0078 24.4931C10.8155 24.7809 10.5422 25.0052 10.2224 25.1377C9.90266 25.2701 9.55079 25.3048 9.21133 25.2372C8.87186 25.1697 8.56004 25.0031 8.3153 24.7583C8.07055 24.5136 7.90388 24.2017 7.83636 23.8623C7.76884 23.5228 7.80349 23.1709 7.93595 22.8512C8.0684 22.5314 8.2927 22.2581 8.58049 22.0658C8.86827 21.8735 9.20662 21.7709 9.55273 21.7709C10.0169 21.7709 10.462 21.9552 10.7902 22.2834C11.1184 22.6116 11.3027 23.0567 11.3027 23.5209ZM23.3027 23.5209C23.3027 23.867 23.2001 24.2053 23.0078 24.4931C22.8155 24.7809 22.5422 25.0052 22.2224 25.1377C21.9027 25.2701 21.5508 25.3048 21.2113 25.2372C20.8719 25.1697 20.56 25.0031 20.3153 24.7583C20.0706 24.5136 19.9039 24.2017 19.8364 23.8623C19.7688 23.5228 19.8035 23.1709 19.9359 22.8512C20.0684 22.5314 20.2927 22.2581 20.5805 22.0658C20.8683 21.8735 21.2066 21.7709 21.5527 21.7709C22.0169 21.7709 22.462 21.9552 22.7902 22.2834C23.1184 22.6116 23.3027 23.0567 23.3027 23.5209ZM23.7952 14.2446C23.7428 14.5326 23.591 14.7931 23.3662 14.9807C23.1414 15.1682 22.858 15.2709 22.5652 15.2709H7.49648L5.95148 6.77087H25.154L23.7952 14.2446Z" fill="#111"/>
</svg>
