<svg width="2931" height="33" viewBox="0 0 2931 33" fill="none" xmlns="http://www.w3.org/2000/svg">
<path d="M977.585 22.2638C973.019 22.2638 969.836 23.6402 966.515 26.806C962.226 31.2106 957.936 33 951.848 33C945.76 33 941.47 31.2106 937.181 26.806C933.998 23.5026 930.677 22.2638 926.111 22.2638C921.545 22.2638 918.362 23.6402 915.042 26.806C910.752 31.2106 906.463 33 900.374 33C894.286 33 889.997 31.2106 885.707 26.806C882.525 23.5026 879.204 22.2638 874.637 22.2638C870.071 22.2638 866.889 23.6402 863.568 26.806C859.278 31.2106 854.989 33 848.901 33C842.812 33 838.523 31.2106 834.233 26.806C831.051 23.5026 827.73 22.2638 823.164 22.2638C818.598 22.2638 815.415 23.6402 812.094 26.806C807.805 31.2106 803.515 33 797.427 33C791.339 33 787.049 31.2106 782.76 26.806C779.577 23.5026 776.256 22.2638 771.69 22.2638C767.124 22.2638 763.803 23.6402 760.621 26.806C756.331 31.2106 752.042 33 745.953 33C739.865 33 735.576 31.2106 731.286 26.806C728.104 23.5026 724.783 22.2638 720.216 22.2638C715.65 22.2638 712.329 23.6402 709.147 26.806C704.857 31.2106 700.568 33 694.48 33C688.391 33 684.102 31.2106 679.812 26.806C676.63 23.5026 673.309 22.2638 668.743 22.2638C664.177 22.2638 660.856 23.6402 657.673 26.806C653.384 31.2106 649.094 33 643.006 33C636.918 33 632.628 31.2106 628.339 26.806C625.156 23.5026 621.835 22.2638 617.269 22.2638C612.703 22.2638 609.52 23.6402 606.2 26.806C601.91 31.2106 597.621 33 591.532 33C585.444 33 581.154 31.2106 576.865 26.806C573.683 23.5026 570.362 22.2638 565.795 22.2638C561.229 22.2638 558.047 23.6402 554.726 26.806C550.436 31.2106 546.147 33 540.059 33C533.97 33 529.681 31.2106 525.391 26.806C522.209 23.5026 518.888 22.2638 514.322 22.2638C509.756 22.2638 506.573 23.6402 503.252 26.806C498.963 31.2106 494.673 33 488.585 33C482.497 33 478.207 31.2106 473.918 26.806C470.735 23.5026 467.414 22.2638 462.848 22.2638C458.282 22.2638 454.961 23.6402 451.778 26.806C447.489 31.2106 443.199 33 437.111 33C431.023 33 426.733 31.2106 422.444 26.806C419.261 23.5026 415.941 22.2638 411.374 22.2638C406.808 22.2638 403.487 23.6402 400.305 26.806C396.015 31.2106 391.726 33 385.638 33C379.549 33 375.26 31.2106 370.97 26.806C367.788 23.5026 364.467 22.2638 359.901 22.2638C355.334 22.2638 352.152 23.6402 348.831 26.806C344.542 31.2106 340.252 33 334.164 33C328.076 33 323.786 31.2106 319.497 26.806C316.314 23.5026 312.993 22.2638 308.427 22.2638C303.861 22.2638 300.678 23.6402 297.357 26.806C293.068 31.2106 288.778 33 282.69 33C276.602 33 272.312 31.2106 268.023 26.806C264.84 23.5026 261.52 22.2638 256.953 22.2638C252.387 22.2638 249.205 23.6402 245.884 26.806C241.594 31.2106 237.305 33 231.216 33C225.128 33 220.839 31.2106 216.549 26.806C213.367 23.5026 210.046 22.2638 205.48 22.2638C200.913 22.2638 197.593 23.6402 194.41 26.806C190.121 31.2106 185.831 33 179.743 33C173.654 33 169.365 31.2106 165.076 26.806C161.893 23.5026 158.572 22.2638 154.006 22.2638C149.44 22.2638 146.119 23.6402 142.936 26.806C139.062 31.2106 134.772 33 128.684 33C122.596 33 118.306 31.2106 114.017 26.806C110.834 23.5026 107.514 22.2638 102.947 22.2638C98.3812 22.2638 95.1986 23.6402 91.8778 26.806C87.5883 31.2106 83.2988 33 77.2105 33C71.1222 33 66.8328 31.2106 62.5433 26.806C59.3608 23.5026 56.0399 22.2638 51.4737 22.2638C46.9075 22.2638 43.725 23.6402 40.4041 26.806C36.1146 31.2106 31.8251 33 25.7368 33C19.6486 33 15.3591 31.2106 11.0696 26.9437C7.8871 23.6403 4.56621 22.4015 0 22.4015C0 15.5193 0 8.63712 0 1.75495C8.44058 1.75495 15.0823 3.95725 21.7241 8.91241C24.6299 11.1147 26.8438 11.1147 29.7496 8.91241C45.5238 -2.78728 57.4236 -2.78728 73.1978 8.91241C76.1036 10.9771 78.3175 10.9771 81.2233 8.77477C96.9975 -2.92492 108.897 -2.92492 124.671 8.77477C127.577 10.9771 129.791 10.9771 132.697 8.77477C148.471 -2.92492 160.371 -2.92492 176.145 8.77477C179.051 10.9771 181.265 10.9771 184.171 8.77477C199.945 -2.92492 211.845 -2.92492 227.619 8.77477C230.525 10.9771 232.739 10.9771 235.644 8.77477C251.419 -2.92492 263.318 -2.92492 279.093 8.77477C281.998 10.9771 284.212 10.9771 287.118 8.77477C302.892 -2.92492 314.792 -2.92492 330.566 8.77477C333.472 10.9771 335.686 10.9771 338.592 8.77477C354.366 -2.92492 366.266 -2.92492 382.04 8.77477C384.946 10.9771 387.16 10.9771 390.065 8.77477C405.84 -2.92492 417.739 -2.92492 433.514 8.77477C436.419 10.9771 438.633 10.9771 441.539 8.77477C457.313 -2.92492 469.213 -2.92492 484.987 8.77477C487.893 10.9771 490.107 10.9771 493.013 8.77477C508.787 -2.92492 520.687 -2.92492 536.461 8.77477C539.367 10.9771 541.581 10.9771 544.486 8.77477C560.261 -2.92492 572.16 -2.92492 587.935 8.77477C590.84 10.9771 593.054 10.9771 595.96 8.77477C611.734 -2.92492 623.634 -2.92492 639.408 8.77477C642.314 10.9771 644.528 10.9771 647.434 8.77477C663.208 -2.92492 675.108 -2.92492 690.882 8.77477C693.788 10.9771 696.002 10.9771 698.907 8.77477C714.682 -2.92492 726.582 -2.92492 742.356 8.77477C745.261 10.9771 747.475 10.9771 750.381 8.77477C766.155 -2.92492 778.055 -2.92492 793.829 8.77477C796.735 10.9771 798.949 10.9771 801.855 8.77477C817.629 -2.92492 829.529 -2.92492 845.303 8.77477C848.209 10.9771 850.423 10.9771 853.329 8.77477C869.103 -2.92492 881.003 -2.92492 896.777 8.77477C899.682 10.9771 901.896 10.9771 904.802 8.77477C920.576 -2.92492 932.476 -2.92492 948.25 8.77477C951.156 10.9771 953.37 10.9771 956.276 8.77477C963.056 3.8196 969.559 1.61731 978 1.61731C977.585 8.49948 977.585 15.3816 977.585 22.2638Z" fill="#0000FF"/>
<path d="M1953.58 22.2638C1949.02 22.2638 1945.84 23.6402 1942.52 26.806C1938.23 31.2106 1933.94 33 1927.85 33C1921.76 33 1917.47 31.2106 1913.18 26.806C1910 23.5026 1906.68 22.2638 1902.11 22.2638C1897.54 22.2638 1894.36 23.6402 1891.04 26.806C1886.75 31.2106 1882.46 33 1876.37 33C1870.29 33 1866 31.2106 1861.71 26.806C1858.52 23.5026 1855.2 22.2638 1850.64 22.2638C1846.07 22.2638 1842.89 23.6402 1839.57 26.806C1835.28 31.2106 1830.99 33 1824.9 33C1818.81 33 1814.52 31.2106 1810.23 26.806C1807.05 23.5026 1803.73 22.2638 1799.16 22.2638C1794.6 22.2638 1791.42 23.6402 1788.09 26.806C1783.8 31.2106 1779.52 33 1773.43 33C1767.34 33 1763.05 31.2106 1758.76 26.806C1755.58 23.5026 1752.26 22.2638 1747.69 22.2638C1743.12 22.2638 1739.8 23.6402 1736.62 26.806C1732.33 31.2106 1728.04 33 1721.95 33C1715.87 33 1711.58 31.2106 1707.29 26.806C1704.1 23.5026 1700.78 22.2638 1696.22 22.2638C1691.65 22.2638 1688.33 23.6402 1685.15 26.806C1680.86 31.2106 1676.57 33 1670.48 33C1664.39 33 1660.1 31.2106 1655.81 26.806C1652.63 23.5026 1649.31 22.2638 1644.74 22.2638C1640.18 22.2638 1636.86 23.6402 1633.67 26.806C1629.38 31.2106 1625.09 33 1619.01 33C1612.92 33 1608.63 31.2106 1604.34 26.806C1601.16 23.5026 1597.84 22.2638 1593.27 22.2638C1588.7 22.2638 1585.52 23.6402 1582.2 26.806C1577.91 31.2106 1573.62 33 1567.53 33C1561.44 33 1557.15 31.2106 1552.87 26.806C1549.68 23.5026 1546.36 22.2638 1541.8 22.2638C1537.23 22.2638 1534.05 23.6402 1530.73 26.806C1526.44 31.2106 1522.15 33 1516.06 33C1509.97 33 1505.68 31.2106 1501.39 26.806C1498.21 23.5026 1494.89 22.2638 1490.32 22.2638C1485.76 22.2638 1482.57 23.6402 1479.25 26.806C1474.96 31.2106 1470.67 33 1464.58 33C1458.5 33 1454.21 31.2106 1449.92 26.806C1446.74 23.5026 1443.41 22.2638 1438.85 22.2638C1434.28 22.2638 1430.96 23.6402 1427.78 26.806C1423.49 31.2106 1419.2 33 1413.11 33C1407.02 33 1402.73 31.2106 1398.44 26.806C1395.26 23.5026 1391.94 22.2638 1387.37 22.2638C1382.81 22.2638 1379.49 23.6402 1376.3 26.806C1372.02 31.2106 1367.73 33 1361.64 33C1355.55 33 1351.26 31.2106 1346.97 26.806C1343.79 23.5026 1340.47 22.2638 1335.9 22.2638C1331.33 22.2638 1328.15 23.6402 1324.83 26.806C1320.54 31.2106 1316.25 33 1310.16 33C1304.08 33 1299.79 31.2106 1295.5 26.806C1292.31 23.5026 1288.99 22.2638 1284.43 22.2638C1279.86 22.2638 1276.68 23.6402 1273.36 26.806C1269.07 31.2106 1264.78 33 1258.69 33C1252.6 33 1248.31 31.2106 1244.02 26.806C1240.84 23.5026 1237.52 22.2638 1232.95 22.2638C1228.39 22.2638 1225.2 23.6402 1221.88 26.806C1217.59 31.2106 1213.3 33 1207.22 33C1201.13 33 1196.84 31.2106 1192.55 26.806C1189.37 23.5026 1186.05 22.2638 1181.48 22.2638C1176.91 22.2638 1173.59 23.6402 1170.41 26.806C1166.12 31.2106 1161.83 33 1155.74 33C1149.65 33 1145.37 31.2106 1141.08 26.806C1137.89 23.5026 1134.57 22.2638 1130.01 22.2638C1125.44 22.2638 1122.12 23.6402 1118.94 26.806C1115.06 31.2106 1110.77 33 1104.68 33C1098.6 33 1094.31 31.2106 1090.02 26.806C1086.83 23.5026 1083.51 22.2638 1078.95 22.2638C1074.38 22.2638 1071.2 23.6402 1067.88 26.806C1063.59 31.2106 1059.3 33 1053.21 33C1047.12 33 1042.83 31.2106 1038.54 26.806C1035.36 23.5026 1032.04 22.2638 1027.47 22.2638C1022.91 22.2638 1019.72 23.6402 1016.4 26.806C1012.11 31.2106 1007.83 33 1001.74 33C995.649 33 991.359 31.2106 987.07 26.9437C983.887 23.6403 980.566 22.4015 976 22.4015C976 15.5193 976 8.63712 976 1.75495C984.441 1.75495 991.082 3.95725 997.724 8.91241C1000.63 11.1147 1002.84 11.1147 1005.75 8.91241C1021.52 -2.78728 1033.42 -2.78728 1049.2 8.91241C1052.1 10.9771 1054.32 10.9771 1057.22 8.77477C1073 -2.92492 1084.9 -2.92492 1100.67 8.77477C1103.58 10.9771 1105.79 10.9771 1108.7 8.77477C1124.47 -2.92492 1136.37 -2.92492 1152.15 8.77477C1155.05 10.9771 1157.26 10.9771 1160.17 8.77477C1175.94 -2.92492 1187.84 -2.92492 1203.62 8.77477C1206.52 10.9771 1208.74 10.9771 1211.64 8.77477C1227.42 -2.92492 1239.32 -2.92492 1255.09 8.77477C1258 10.9771 1260.21 10.9771 1263.12 8.77477C1278.89 -2.92492 1290.79 -2.92492 1306.57 8.77477C1309.47 10.9771 1311.69 10.9771 1314.59 8.77477C1330.37 -2.92492 1342.27 -2.92492 1358.04 8.77477C1360.95 10.9771 1363.16 10.9771 1366.07 8.77477C1381.84 -2.92492 1393.74 -2.92492 1409.51 8.77477C1412.42 10.9771 1414.63 10.9771 1417.54 8.77477C1433.31 -2.92492 1445.21 -2.92492 1460.99 8.77477C1463.89 10.9771 1466.11 10.9771 1469.01 8.77477C1484.79 -2.92492 1496.69 -2.92492 1512.46 8.77477C1515.37 10.9771 1517.58 10.9771 1520.49 8.77477C1536.26 -2.92492 1548.16 -2.92492 1563.93 8.77477C1566.84 10.9771 1569.05 10.9771 1571.96 8.77477C1587.73 -2.92492 1599.63 -2.92492 1615.41 8.77477C1618.31 10.9771 1620.53 10.9771 1623.43 8.77477C1639.21 -2.92492 1651.11 -2.92492 1666.88 8.77477C1669.79 10.9771 1672 10.9771 1674.91 8.77477C1690.68 -2.92492 1702.58 -2.92492 1718.36 8.77477C1721.26 10.9771 1723.48 10.9771 1726.38 8.77477C1742.16 -2.92492 1754.06 -2.92492 1769.83 8.77477C1772.74 10.9771 1774.95 10.9771 1777.85 8.77477C1793.63 -2.92492 1805.53 -2.92492 1821.3 8.77477C1824.21 10.9771 1826.42 10.9771 1829.33 8.77477C1845.1 -2.92492 1857 -2.92492 1872.78 8.77477C1875.68 10.9771 1877.9 10.9771 1880.8 8.77477C1896.58 -2.92492 1908.48 -2.92492 1924.25 8.77477C1927.16 10.9771 1929.37 10.9771 1932.28 8.77477C1939.06 3.8196 1945.56 1.61731 1954 1.61731C1953.58 8.49948 1953.58 15.3816 1953.58 22.2638Z" fill="#0000FF"/>
<path d="M2930.58 22.2638C2926.02 22.2638 2922.84 23.6402 2919.52 26.806C2915.23 31.2106 2910.94 33 2904.85 33C2898.76 33 2894.47 31.2106 2890.18 26.806C2887 23.5026 2883.68 22.2638 2879.11 22.2638C2874.54 22.2638 2871.36 23.6402 2868.04 26.806C2863.75 31.2106 2859.46 33 2853.37 33C2847.29 33 2843 31.2106 2838.71 26.806C2835.52 23.5026 2832.2 22.2638 2827.64 22.2638C2823.07 22.2638 2819.89 23.6402 2816.57 26.806C2812.28 31.2106 2807.99 33 2801.9 33C2795.81 33 2791.52 31.2106 2787.23 26.806C2784.05 23.5026 2780.73 22.2638 2776.16 22.2638C2771.6 22.2638 2768.42 23.6402 2765.09 26.806C2760.8 31.2106 2756.52 33 2750.43 33C2744.34 33 2740.05 31.2106 2735.76 26.806C2732.58 23.5026 2729.26 22.2638 2724.69 22.2638C2720.12 22.2638 2716.8 23.6402 2713.62 26.806C2709.33 31.2106 2705.04 33 2698.95 33C2692.87 33 2688.58 31.2106 2684.29 26.806C2681.1 23.5026 2677.78 22.2638 2673.22 22.2638C2668.65 22.2638 2665.33 23.6402 2662.15 26.806C2657.86 31.2106 2653.57 33 2647.48 33C2641.39 33 2637.1 31.2106 2632.81 26.806C2629.63 23.5026 2626.31 22.2638 2621.74 22.2638C2617.18 22.2638 2613.86 23.6402 2610.67 26.806C2606.38 31.2106 2602.09 33 2596.01 33C2589.92 33 2585.63 31.2106 2581.34 26.806C2578.16 23.5026 2574.84 22.2638 2570.27 22.2638C2565.7 22.2638 2562.52 23.6402 2559.2 26.806C2554.91 31.2106 2550.62 33 2544.53 33C2538.44 33 2534.15 31.2106 2529.87 26.806C2526.68 23.5026 2523.36 22.2638 2518.8 22.2638C2514.23 22.2638 2511.05 23.6402 2507.73 26.806C2503.44 31.2106 2499.15 33 2493.06 33C2486.97 33 2482.68 31.2106 2478.39 26.806C2475.21 23.5026 2471.89 22.2638 2467.32 22.2638C2462.76 22.2638 2459.57 23.6402 2456.25 26.806C2451.96 31.2106 2447.67 33 2441.58 33C2435.5 33 2431.21 31.2106 2426.92 26.806C2423.74 23.5026 2420.41 22.2638 2415.85 22.2638C2411.28 22.2638 2407.96 23.6402 2404.78 26.806C2400.49 31.2106 2396.2 33 2390.11 33C2384.02 33 2379.73 31.2106 2375.44 26.806C2372.26 23.5026 2368.94 22.2638 2364.37 22.2638C2359.81 22.2638 2356.49 23.6402 2353.3 26.806C2349.02 31.2106 2344.73 33 2338.64 33C2332.55 33 2328.26 31.2106 2323.97 26.806C2320.79 23.5026 2317.47 22.2638 2312.9 22.2638C2308.33 22.2638 2305.15 23.6402 2301.83 26.806C2297.54 31.2106 2293.25 33 2287.16 33C2281.08 33 2276.79 31.2106 2272.5 26.806C2269.31 23.5026 2265.99 22.2638 2261.43 22.2638C2256.86 22.2638 2253.68 23.6402 2250.36 26.806C2246.07 31.2106 2241.78 33 2235.69 33C2229.6 33 2225.31 31.2106 2221.02 26.806C2217.84 23.5026 2214.52 22.2638 2209.95 22.2638C2205.39 22.2638 2202.2 23.6402 2198.88 26.806C2194.59 31.2106 2190.3 33 2184.22 33C2178.13 33 2173.84 31.2106 2169.55 26.806C2166.37 23.5026 2163.05 22.2638 2158.48 22.2638C2153.91 22.2638 2150.59 23.6402 2147.41 26.806C2143.12 31.2106 2138.83 33 2132.74 33C2126.65 33 2122.37 31.2106 2118.08 26.806C2114.89 23.5026 2111.57 22.2638 2107.01 22.2638C2102.44 22.2638 2099.12 23.6402 2095.94 26.806C2092.06 31.2106 2087.77 33 2081.68 33C2075.6 33 2071.31 31.2106 2067.02 26.806C2063.83 23.5026 2060.51 22.2638 2055.95 22.2638C2051.38 22.2638 2048.2 23.6402 2044.88 26.806C2040.59 31.2106 2036.3 33 2030.21 33C2024.12 33 2019.83 31.2106 2015.54 26.806C2012.36 23.5026 2009.04 22.2638 2004.47 22.2638C1999.91 22.2638 1996.72 23.6402 1993.4 26.806C1989.11 31.2106 1984.83 33 1978.74 33C1972.65 33 1968.36 31.2106 1964.07 26.9437C1960.89 23.6403 1957.57 22.4015 1953 22.4015C1953 15.5193 1953 8.63712 1953 1.75495C1961.44 1.75495 1968.08 3.95725 1974.72 8.91241C1977.63 11.1147 1979.84 11.1147 1982.75 8.91241C1998.52 -2.78728 2010.42 -2.78728 2026.2 8.91241C2029.1 10.9771 2031.32 10.9771 2034.22 8.77477C2050 -2.92492 2061.9 -2.92492 2077.67 8.77477C2080.58 10.9771 2082.79 10.9771 2085.7 8.77477C2101.47 -2.92492 2113.37 -2.92492 2129.15 8.77477C2132.05 10.9771 2134.26 10.9771 2137.17 8.77477C2152.94 -2.92492 2164.84 -2.92492 2180.62 8.77477C2183.52 10.9771 2185.74 10.9771 2188.64 8.77477C2204.42 -2.92492 2216.32 -2.92492 2232.09 8.77477C2235 10.9771 2237.21 10.9771 2240.12 8.77477C2255.89 -2.92492 2267.79 -2.92492 2283.57 8.77477C2286.47 10.9771 2288.69 10.9771 2291.59 8.77477C2307.37 -2.92492 2319.27 -2.92492 2335.04 8.77477C2337.95 10.9771 2340.16 10.9771 2343.07 8.77477C2358.84 -2.92492 2370.74 -2.92492 2386.51 8.77477C2389.42 10.9771 2391.63 10.9771 2394.54 8.77477C2410.31 -2.92492 2422.21 -2.92492 2437.99 8.77477C2440.89 10.9771 2443.11 10.9771 2446.01 8.77477C2461.79 -2.92492 2473.69 -2.92492 2489.46 8.77477C2492.37 10.9771 2494.58 10.9771 2497.49 8.77477C2513.26 -2.92492 2525.16 -2.92492 2540.93 8.77477C2543.84 10.9771 2546.05 10.9771 2548.96 8.77477C2564.73 -2.92492 2576.63 -2.92492 2592.41 8.77477C2595.31 10.9771 2597.53 10.9771 2600.43 8.77477C2616.21 -2.92492 2628.11 -2.92492 2643.88 8.77477C2646.79 10.9771 2649 10.9771 2651.91 8.77477C2667.68 -2.92492 2679.58 -2.92492 2695.36 8.77477C2698.26 10.9771 2700.48 10.9771 2703.38 8.77477C2719.16 -2.92492 2731.06 -2.92492 2746.83 8.77477C2749.74 10.9771 2751.95 10.9771 2754.85 8.77477C2770.63 -2.92492 2782.53 -2.92492 2798.3 8.77477C2801.21 10.9771 2803.42 10.9771 2806.33 8.77477C2822.1 -2.92492 2834 -2.92492 2849.78 8.77477C2852.68 10.9771 2854.9 10.9771 2857.8 8.77477C2873.58 -2.92492 2885.48 -2.92492 2901.25 8.77477C2904.16 10.9771 2906.37 10.9771 2909.28 8.77477C2916.06 3.8196 2922.56 1.61731 2931 1.61731C2930.58 8.49948 2930.58 15.3816 2930.58 22.2638Z" fill="#0000FF"/>
</svg>
