<svg width="33" height="33" viewBox="0 0 33 33" fill="none" xmlns="http://www.w3.org/2000/svg">
<path d="M16.4983 23.3889C20.3028 23.3889 23.3872 20.3045 23.3872 16.5C23.3872 12.6953 20.3028 9.61108 16.4983 9.61108C12.6936 9.61108 9.60938 12.6953 9.60938 16.5C9.60938 20.3045 12.6936 23.3889 16.4983 23.3889Z" stroke="#fdfdfd" stroke-width="2" stroke-linecap="round" stroke-linejoin="round"/>
<path d="M1 23.3889V9.61111C1 4.85533 4.85533 1 9.61111 1H23.3889C28.1446 1 32 4.85533 32 9.61111V23.3889C32 28.1446 28.1446 32 23.3889 32H9.61111C4.85533 32 1 28.1446 1 23.3889Z" stroke="#fdfdfd" stroke-width="2"/>
<path d="M25.9717 7.0458L25.9898 7.02563" stroke="#fdfdfd" stroke-width="2" stroke-linecap="round" stroke-linejoin="round"/>
</svg>
