<svg width="27" height="27" viewBox="0 0 27 27" fill="none" xmlns="http://www.w3.org/2000/svg">
<path d="M26.3031 24.9828L19.1522 17.8319C20.8706 15.7689 21.7275 13.1228 21.5447 10.4441C21.3618 7.76543 20.1533 5.26035 18.1705 3.45C16.1877 1.63966 13.5833 0.663445 10.899 0.724436C8.21477 0.785427 5.65738 1.87893 3.75885 3.77746C1.86031 5.676 0.766811 8.23339 0.70582 10.9176C0.644829 13.6019 1.62105 16.2063 3.43139 18.1891C5.24173 20.1719 7.74682 21.3804 10.4255 21.5633C13.1042 21.7461 15.7503 20.8892 17.8133 19.1708L24.9642 26.3217L26.3031 24.9828ZM2.63077 11.1714C2.63077 9.48593 3.13058 7.83828 4.067 6.43684C5.00341 5.0354 6.33437 3.94311 7.89157 3.29809C9.44878 2.65308 11.1623 2.48431 12.8154 2.81314C14.4685 3.14196 15.987 3.95361 17.1788 5.14544C18.3706 6.33727 19.1823 7.85575 19.5111 9.50887C19.8399 11.162 19.6712 12.8755 19.0262 14.4327C18.3812 15.9899 17.2889 17.3208 15.8874 18.2573C14.486 19.1937 12.8383 19.6935 11.1528 19.6935C8.8934 19.691 6.72724 18.7923 5.12959 17.1947C3.53194 15.597 2.63328 13.4309 2.63077 11.1714Z" fill="#0000FF"/>
</svg>
