<svg width="978" height="33" viewBox="0 0 978 33" fill="none" xmlns="http://www.w3.org/2000/svg">
<mask id="path-1-inside-1_27_2" fill="white">
<path d="M977.585 22.2638C973.019 22.2638 969.836 23.6402 966.515 26.806C962.226 31.2106 957.936 33 951.848 33C945.76 33 941.47 31.2106 937.181 26.806C933.998 23.5026 930.677 22.2638 926.111 22.2638C921.545 22.2638 918.362 23.6402 915.042 26.806C910.752 31.2106 906.463 33 900.374 33C894.286 33 889.997 31.2106 885.707 26.806C882.525 23.5026 879.204 22.2638 874.638 22.2638C870.071 22.2638 866.889 23.6402 863.568 26.806C859.278 31.2106 854.989 33 848.901 33C842.812 33 838.523 31.2106 834.234 26.806C831.051 23.5026 827.73 22.2638 823.164 22.2638C818.598 22.2638 815.415 23.6402 812.094 26.806C807.805 31.2106 803.515 33 797.427 33C791.339 33 787.049 31.2106 782.76 26.806C779.577 23.5026 776.256 22.2638 771.69 22.2638C767.124 22.2638 763.803 23.6402 760.621 26.806C756.331 31.2106 752.042 33 745.953 33C739.865 33 735.576 31.2106 731.286 26.806C728.104 23.5026 724.783 22.2638 720.216 22.2638C715.65 22.2638 712.329 23.6402 709.147 26.806C704.857 31.2106 700.568 33 694.48 33C688.391 33 684.102 31.2106 679.812 26.806C676.63 23.5026 673.309 22.2638 668.743 22.2638C664.177 22.2638 660.856 23.6402 657.673 26.806C653.384 31.2106 649.094 33 643.006 33C636.918 33 632.628 31.2106 628.339 26.806C625.156 23.5026 621.835 22.2638 617.269 22.2638C612.703 22.2638 609.52 23.6402 606.2 26.806C601.91 31.2106 597.621 33 591.532 33C585.444 33 581.155 31.2106 576.865 26.806C573.683 23.5026 570.362 22.2638 565.795 22.2638C561.229 22.2638 558.047 23.6402 554.726 26.806C550.436 31.2106 546.147 33 540.059 33C533.97 33 529.681 31.2106 525.391 26.806C522.209 23.5026 518.888 22.2638 514.322 22.2638C509.756 22.2638 506.573 23.6402 503.252 26.806C498.963 31.2106 494.673 33 488.585 33C482.497 33 478.207 31.2106 473.918 26.806C470.735 23.5026 467.414 22.2638 462.848 22.2638C458.282 22.2638 454.961 23.6402 451.778 26.806C447.489 31.2106 443.199 33 437.111 33C431.023 33 426.733 31.2106 422.444 26.806C419.261 23.5026 415.941 22.2638 411.374 22.2638C406.808 22.2638 403.487 23.6402 400.305 26.806C396.015 31.2106 391.726 33 385.638 33C379.549 33 375.26 31.2106 370.97 26.806C367.788 23.5026 364.467 22.2638 359.901 22.2638C355.334 22.2638 352.152 23.6402 348.831 26.806C344.542 31.2106 340.252 33 334.164 33C328.076 33 323.786 31.2106 319.497 26.806C316.314 23.5026 312.993 22.2638 308.427 22.2638C303.861 22.2638 300.678 23.6402 297.357 26.806C293.068 31.2106 288.778 33 282.69 33C276.602 33 272.312 31.2106 268.023 26.806C264.84 23.5026 261.52 22.2638 256.953 22.2638C252.387 22.2638 249.205 23.6402 245.884 26.806C241.594 31.2106 237.305 33 231.216 33C225.128 33 220.839 31.2106 216.549 26.806C213.367 23.5026 210.046 22.2638 205.48 22.2638C200.913 22.2638 197.593 23.6402 194.41 26.806C190.121 31.2106 185.831 33 179.743 33C173.654 33 169.365 31.2106 165.076 26.806C161.893 23.5026 158.572 22.2638 154.006 22.2638C149.44 22.2638 146.119 23.6402 142.936 26.806C139.062 31.2106 134.773 33 128.684 33C122.596 33 118.306 31.2106 114.017 26.806C110.834 23.5026 107.514 22.2638 102.947 22.2638C98.3812 22.2638 95.1986 23.6402 91.8778 26.806C87.5883 31.2106 83.2988 33 77.2105 33C71.1222 33 66.8328 31.2106 62.5433 26.806C59.3608 23.5026 56.0399 22.2638 51.4737 22.2638C46.9075 22.2638 43.725 23.6402 40.4041 26.806C36.1146 31.2106 31.8251 33 25.7368 33C19.6486 33 15.3591 31.2106 11.0696 26.9437C7.8871 23.6403 4.56621 22.4015 0 22.4015C0 15.5193 0 8.63712 0 1.75495C8.44058 1.75495 15.0823 3.95725 21.7241 8.91241C24.6299 11.1147 26.8438 11.1147 29.7496 8.91241C45.5238 -2.78728 57.4236 -2.78728 73.1978 8.91241C76.1036 10.9771 78.3175 10.9771 81.2233 8.77477C96.9975 -2.92492 108.897 -2.92492 124.671 8.77477C127.577 10.9771 129.791 10.9771 132.697 8.77477C148.471 -2.92492 160.371 -2.92492 176.145 8.77477C179.051 10.9771 181.265 10.9771 184.171 8.77477C199.945 -2.92492 211.845 -2.92492 227.619 8.77477C230.525 10.9771 232.739 10.9771 235.644 8.77477C251.419 -2.92492 263.318 -2.92492 279.093 8.77477C281.998 10.9771 284.212 10.9771 287.118 8.77477C302.892 -2.92492 314.792 -2.92492 330.566 8.77477C333.472 10.9771 335.686 10.9771 338.592 8.77477C354.366 -2.92492 366.266 -2.92492 382.04 8.77477C384.946 10.9771 387.16 10.9771 390.065 8.77477C405.84 -2.92492 417.739 -2.92492 433.514 8.77477C436.419 10.9771 438.633 10.9771 441.539 8.77477C457.313 -2.92492 469.213 -2.92492 484.987 8.77477C487.893 10.9771 490.107 10.9771 493.013 8.77477C508.787 -2.92492 520.687 -2.92492 536.461 8.77477C539.367 10.9771 541.581 10.9771 544.486 8.77477C560.261 -2.92492 572.16 -2.92492 587.935 8.77477C590.84 10.9771 593.054 10.9771 595.96 8.77477C611.734 -2.92492 623.634 -2.92492 639.408 8.77477C642.314 10.9771 644.528 10.9771 647.434 8.77477C663.208 -2.92492 675.108 -2.92492 690.882 8.77477C693.788 10.9771 696.002 10.9771 698.907 8.77477C714.682 -2.92492 726.582 -2.92492 742.356 8.77477C745.261 10.9771 747.475 10.9771 750.381 8.77477C766.155 -2.92492 778.055 -2.92492 793.829 8.77477C796.735 10.9771 798.949 10.9771 801.855 8.77477C817.629 -2.92492 829.529 -2.92492 845.303 8.77477C848.209 10.9771 850.423 10.9771 853.329 8.77477C869.103 -2.92492 881.003 -2.92492 896.777 8.77477C899.683 10.9771 901.896 10.9771 904.802 8.77477C920.576 -2.92492 932.476 -2.92492 948.25 8.77477C951.156 10.9771 953.37 10.9771 956.276 8.77477C963.056 3.8196 969.559 1.61731 978 1.61731C977.585 8.49948 977.585 15.3816 977.585 22.2638Z"/>
</mask>
<path d="M977.585 22.2638C973.019 22.2638 969.836 23.6402 966.515 26.806C962.226 31.2106 957.936 33 951.848 33C945.76 33 941.47 31.2106 937.181 26.806C933.998 23.5026 930.677 22.2638 926.111 22.2638C921.545 22.2638 918.362 23.6402 915.042 26.806C910.752 31.2106 906.463 33 900.374 33C894.286 33 889.997 31.2106 885.707 26.806C882.525 23.5026 879.204 22.2638 874.638 22.2638C870.071 22.2638 866.889 23.6402 863.568 26.806C859.278 31.2106 854.989 33 848.901 33C842.812 33 838.523 31.2106 834.234 26.806C831.051 23.5026 827.73 22.2638 823.164 22.2638C818.598 22.2638 815.415 23.6402 812.094 26.806C807.805 31.2106 803.515 33 797.427 33C791.339 33 787.049 31.2106 782.76 26.806C779.577 23.5026 776.256 22.2638 771.69 22.2638C767.124 22.2638 763.803 23.6402 760.621 26.806C756.331 31.2106 752.042 33 745.953 33C739.865 33 735.576 31.2106 731.286 26.806C728.104 23.5026 724.783 22.2638 720.216 22.2638C715.65 22.2638 712.329 23.6402 709.147 26.806C704.857 31.2106 700.568 33 694.48 33C688.391 33 684.102 31.2106 679.812 26.806C676.63 23.5026 673.309 22.2638 668.743 22.2638C664.177 22.2638 660.856 23.6402 657.673 26.806C653.384 31.2106 649.094 33 643.006 33C636.918 33 632.628 31.2106 628.339 26.806C625.156 23.5026 621.835 22.2638 617.269 22.2638C612.703 22.2638 609.52 23.6402 606.2 26.806C601.91 31.2106 597.621 33 591.532 33C585.444 33 581.155 31.2106 576.865 26.806C573.683 23.5026 570.362 22.2638 565.795 22.2638C561.229 22.2638 558.047 23.6402 554.726 26.806C550.436 31.2106 546.147 33 540.059 33C533.97 33 529.681 31.2106 525.391 26.806C522.209 23.5026 518.888 22.2638 514.322 22.2638C509.756 22.2638 506.573 23.6402 503.252 26.806C498.963 31.2106 494.673 33 488.585 33C482.497 33 478.207 31.2106 473.918 26.806C470.735 23.5026 467.414 22.2638 462.848 22.2638C458.282 22.2638 454.961 23.6402 451.778 26.806C447.489 31.2106 443.199 33 437.111 33C431.023 33 426.733 31.2106 422.444 26.806C419.261 23.5026 415.941 22.2638 411.374 22.2638C406.808 22.2638 403.487 23.6402 400.305 26.806C396.015 31.2106 391.726 33 385.638 33C379.549 33 375.26 31.2106 370.97 26.806C367.788 23.5026 364.467 22.2638 359.901 22.2638C355.334 22.2638 352.152 23.6402 348.831 26.806C344.542 31.2106 340.252 33 334.164 33C328.076 33 323.786 31.2106 319.497 26.806C316.314 23.5026 312.993 22.2638 308.427 22.2638C303.861 22.2638 300.678 23.6402 297.357 26.806C293.068 31.2106 288.778 33 282.69 33C276.602 33 272.312 31.2106 268.023 26.806C264.84 23.5026 261.52 22.2638 256.953 22.2638C252.387 22.2638 249.205 23.6402 245.884 26.806C241.594 31.2106 237.305 33 231.216 33C225.128 33 220.839 31.2106 216.549 26.806C213.367 23.5026 210.046 22.2638 205.48 22.2638C200.913 22.2638 197.593 23.6402 194.41 26.806C190.121 31.2106 185.831 33 179.743 33C173.654 33 169.365 31.2106 165.076 26.806C161.893 23.5026 158.572 22.2638 154.006 22.2638C149.44 22.2638 146.119 23.6402 142.936 26.806C139.062 31.2106 134.773 33 128.684 33C122.596 33 118.306 31.2106 114.017 26.806C110.834 23.5026 107.514 22.2638 102.947 22.2638C98.3812 22.2638 95.1986 23.6402 91.8778 26.806C87.5883 31.2106 83.2988 33 77.2105 33C71.1222 33 66.8328 31.2106 62.5433 26.806C59.3608 23.5026 56.0399 22.2638 51.4737 22.2638C46.9075 22.2638 43.725 23.6402 40.4041 26.806C36.1146 31.2106 31.8251 33 25.7368 33C19.6486 33 15.3591 31.2106 11.0696 26.9437C7.8871 23.6403 4.56621 22.4015 0 22.4015C0 15.5193 0 8.63712 0 1.75495C8.44058 1.75495 15.0823 3.95725 21.7241 8.91241C24.6299 11.1147 26.8438 11.1147 29.7496 8.91241C45.5238 -2.78728 57.4236 -2.78728 73.1978 8.91241C76.1036 10.9771 78.3175 10.9771 81.2233 8.77477C96.9975 -2.92492 108.897 -2.92492 124.671 8.77477C127.577 10.9771 129.791 10.9771 132.697 8.77477C148.471 -2.92492 160.371 -2.92492 176.145 8.77477C179.051 10.9771 181.265 10.9771 184.171 8.77477C199.945 -2.92492 211.845 -2.92492 227.619 8.77477C230.525 10.9771 232.739 10.9771 235.644 8.77477C251.419 -2.92492 263.318 -2.92492 279.093 8.77477C281.998 10.9771 284.212 10.9771 287.118 8.77477C302.892 -2.92492 314.792 -2.92492 330.566 8.77477C333.472 10.9771 335.686 10.9771 338.592 8.77477C354.366 -2.92492 366.266 -2.92492 382.04 8.77477C384.946 10.9771 387.16 10.9771 390.065 8.77477C405.84 -2.92492 417.739 -2.92492 433.514 8.77477C436.419 10.9771 438.633 10.9771 441.539 8.77477C457.313 -2.92492 469.213 -2.92492 484.987 8.77477C487.893 10.9771 490.107 10.9771 493.013 8.77477C508.787 -2.92492 520.687 -2.92492 536.461 8.77477C539.367 10.9771 541.581 10.9771 544.486 8.77477C560.261 -2.92492 572.16 -2.92492 587.935 8.77477C590.84 10.9771 593.054 10.9771 595.96 8.77477C611.734 -2.92492 623.634 -2.92492 639.408 8.77477C642.314 10.9771 644.528 10.9771 647.434 8.77477C663.208 -2.92492 675.108 -2.92492 690.882 8.77477C693.788 10.9771 696.002 10.9771 698.907 8.77477C714.682 -2.92492 726.582 -2.92492 742.356 8.77477C745.261 10.9771 747.475 10.9771 750.381 8.77477C766.155 -2.92492 778.055 -2.92492 793.829 8.77477C796.735 10.9771 798.949 10.9771 801.855 8.77477C817.629 -2.92492 829.529 -2.92492 845.303 8.77477C848.209 10.9771 850.423 10.9771 853.329 8.77477C869.103 -2.92492 881.003 -2.92492 896.777 8.77477C899.683 10.9771 901.896 10.9771 904.802 8.77477C920.576 -2.92492 932.476 -2.92492 948.25 8.77477C951.156 10.9771 953.37 10.9771 956.276 8.77477C963.056 3.8196 969.559 1.61731 978 1.61731C977.585 8.49948 977.585 15.3816 977.585 22.2638Z" fill="white" stroke="#0000FF" stroke-width="4" mask="url(#path-1-inside-1_27_2)"/>
</svg>
